<?xml version="1.0" encoding="utf-8"?>
<!-- Generator: Adobe Illustrator 25.0.1, SVG Export Plug-In . SVG Version: 6.00 Build 0)  -->
<svg version="1.1" id="Layer_1" xmlns="http://www.w3.org/2000/svg" xmlns:xlink="http://www.w3.org/1999/xlink" x="0px" y="0px"
	 viewBox="0 0 448 125.9" style="enable-background:new 0 0 448 125.9;" xml:space="preserve">
<path d="M8,63C8,32.1,33.1,7,64,7s56,25.1,56,56s-25.1,56-56,56S8,93.9,8,63z M168,63c0-30.9,25.1-56,56-56s56,25.1,56,56
	s-25.1,56-56,56S168,93.9,168,63z M384,7c30.9,0,56,25.1,56,56s-25.1,56-56,56s-56-25.1-56-56S353.1,7,384,7L384,7z"/>
</svg>
